<?xml version="1.0" encoding="utf-8"?>
<!-- Generator: Adobe Illustrator 21.1.0, SVG Export Plug-In . SVG Version: 6.00 Build 0)  -->
<svg version="1.1" id="Layer_1" xmlns="http://www.w3.org/2000/svg" xmlns:xlink="http://www.w3.org/1999/xlink" x="0px" y="0px"
	 viewBox="0 0 1140 360" style="enable-background:new 0 0 1140 360;" xml:space="preserve">
<style type="text/css">
	.st0{fill:#000066;}
	.st1{fill:none;}
	.st2{fill:#CCCCCC;}
	.st3{font-family:'MicrosoftTaiLe';}
	.st4{font-size:100px;}
	.st5{fill:#3999C6;}
	.st6{fill:#59B4D9;}
	.st7{fill:#FFFFFF;}
	.st8{fill:#7FBA00;}
	.st9{fill:#B8D432;}
</style>
<path class="st0" d="M0,0h1140v360H0V0z"/>
<rect x="171" y="57.6" class="st1" width="798" height="107"/>
<text transform="matrix(1 0 0 1 82.2681 172.5319)" class="st2 st3 st4">Stored using SQL</text>
<path class="st5" d="M942.4,79.7v109.5c0,11.4,25.4,20.6,56.8,20.6v-130H942.4z"/>
<path class="st6" d="M998.4,209.8h0.8c31.4,0,56.8-9.2,56.8-20.6V79.7h-57.6V209.8z"/>
<path class="st7" d="M1056,79.7c0,11.4-25.4,20.6-56.8,20.6s-56.8-9.2-56.8-20.6s25.4-20.6,56.8-20.6S1056,68.4,1056,79.7"/>
<path class="st8" d="M1044.4,78.5c0,7.5-20.2,13.6-45.2,13.6c-25,0-45.2-6.1-45.2-13.6c0-7.5,20.2-13.6,45.2-13.6
	C1024.2,65,1044.4,71.1,1044.4,78.5"/>
<path class="st9" d="M1035,86.8c5.9-2.3,9.5-5.2,9.5-8.3c0-7.5-20.2-13.6-45.2-13.6c-25,0-45.2,6.1-45.2,13.6c0,3.1,3.6,6,9.5,8.3
	c8.3-3.2,21.2-5.3,35.7-5.3C1013.8,81.6,1026.7,83.6,1035,86.8"/>
<path class="st7" d="M1035.9,168.5c-3,2.5-7.2,3.8-12.5,3.8h-17.9v-46.6h16.9c5.3,0,9.4,1,12.2,3c2.6,1.9,4,4.5,4,7.9
	c0,2.7-1,5-2.9,7c-1.7,1.7-3.7,2.8-6.1,3.5v0.1c3.3,0.4,6,1.7,8,3.8c1.9,2,2.9,4.5,2.9,7.3C1040.5,162.6,1039,166,1035.9,168.5
	 M992.4,165.7c-4.5,4.4-10.5,6.5-18,6.5h-16.5v-46.6h16.5c16.5,0,24.8,7.5,24.8,22.7C999.2,155.6,997,161.4,992.4,165.7"/>
<path class="st5" d="M973.5,134.2h-5.2v29.6h5.2c4.6,0,8.2-1.4,10.8-4.2c2.5-2.8,3.8-6.4,3.8-11.1c0-4.4-1.3-7.8-3.7-10.3
	C981.9,135.5,978.2,134.2,973.5,134.2"/>
<path class="st6" d="M1025.7,142.9c1.3-1.1,1.9-2.5,1.9-4.3c0-3.5-2.5-5.2-7.6-5.2h-3.9v11h4.6
	C1022.8,144.5,1024.5,143.9,1025.7,142.9"/>
<path class="st6" d="M1027.4,153.9c-1.4-1-3.3-1.6-5.7-1.6h-5.7v12.3h5.7c2.4,0,4.4-0.6,5.8-1.7c1.3-1.2,2-2.6,2-4.6
	C1029.5,156.4,1028.8,154.9,1027.4,153.9"/>
<rect x="891" y="47.1" class="st2" width="3" height="174.8"/>
</svg>
