<?xml version="1.0" encoding="utf-8"?>
<!-- Generator: Adobe Illustrator 21.1.0, SVG Export Plug-In . SVG Version: 6.00 Build 0)  -->
<svg version="1.1" id="bg" xmlns="http://www.w3.org/2000/svg" xmlns:xlink="http://www.w3.org/1999/xlink" x="0px" y="0px"
	 viewBox="0 0 1140 360" style="enable-background:new 0 0 1140 360;" xml:space="preserve">
<style type="text/css">
	.st0{fill:#6D91B2;}
	.st1{fill:none;}
	.st2{fill:#EC2127;}
	.st3{fill:#000033;}
	.st4{font-family:'SitkaBanner';}
	.st5{font-size:75px;}
</style>
<title>banner3b</title>
<path class="st0" d="M0,0h1140v360H0V0z"/>
<rect y="47.5" class="st1" width="970" height="215"/>
<g>
	<path class="st2" d="M1000.9,257.8c-10.7-1.5-17.8-7.2-21.5-17.5c-0.3-1-0.8-2.5-0.9-3.5l-0.3-1.7l-1,1.5c-1.2,1.8-1.8,3.7-2.2,5.8
		c-0.3,2.3,0.8,6.5,2.4,8.7c0.7,1,1.2,2,1.2,2.1c-0.4,0.3-3.8-1.1-5.7-2.4c-3.7-2.6-5.5-5-7.1-9.2c-0.9-2.3-0.9-3-0.9-10.8
		c0-9.4-0.2-10.5-2.7-13.6c-0.8-1-2.8-3-4.4-4.3c-1.7-1.4-3.6-3-4.2-3.6c-0.6-0.5-2.5-2-4-3.3c-1.6-1.3-3-2.5-3.1-2.6
		s-1.4-1.2-2.9-2.4c-5.4-4.3-6.5-6.4-7.7-14.9c-0.3-2.3-1.8-4.4-4.4-6.4c-4.8-3.6-6.5-6.1-6.5-9.9c0-1.1,0.3-2.5,0.7-3.2l0.7-1.2
		l0.2,1.3c0.7,4,2.9,5.6,9.2,6.5c6.7,1,7.5,1.6,8.7,6.5c0.8,3.4,1.5,4.8,2.4,5.2c0.3,0.2,2.3,0.4,4.3,0.6c5.6,0.6,7.2,1.1,9.3,3.1
		c0.3,0.3,2,1.6,3.6,2.9c1.6,1.3,3,2.4,3,2.6c0,0.2,0.3,0.3,0.6,0.3s0.6,0.1,0.6,0.3s1.2,1.2,2.7,2.4s2.7,2.2,2.7,2.4
		s0.3,0.3,0.6,0.3s0.7,0.2,0.8,0.5c0.2,0.3,1.7,1.6,3.4,3s3.5,2.8,4,3.3c1.2,1.1,4.7,2.4,6.4,2.4c3.1,0,6.7-2.8,7.8-6
		c0.6-1.7,0.5-4.2-0.1-5.6c-0.9-2.2,3.6,1.2,5.5,4c1.6,2.5,2.8,6.9,2.8,10.1c0,3.3-1.3,7.2-3.1,9.5l-1.2,1.4h1.3
		c5.2,0.1,8.9-0.7,11.9-2.6c5.7-3.6,7-10,3.1-15.4c-1.1-1.6-4.3-3.9-6-4.4c-2.2-0.6-1.5-1.1,1.7-1.1c11,0,20.4,6.3,23.7,15.8
		c0.8,2.3,1,3.5,1,6.7c0,4.3-0.8,7.2-2.8,10.7s-7.2,8-11.2,9.6c-2.7,1.2-7.6,2.2-10.5,2.2c-1.5,0-2.7,0.2-2.6,0.3
		c0.4,0.7,4.3,2.2,7.2,2.9s6.6,0.7,8.7,0c1.5-0.5,1,0.6-1.3,2.8c-1.2,1.2-2.5,2.2-3,2.4s-1.5,0.8-2.3,1.2
		C1014.5,256.5,1005.4,258.4,1000.9,257.8z"/>
	<path class="st2" d="M901.6,254.1c-4.9-0.7-8-1.8-13.7-4.5c-5.3-2.5-9.9-6.3-13.7-11.3c-2.3-3-3-3.3-3.7-1.9
		c-0.6,1.1-0.4,2.5,0.5,5.8c0.9,3,0,2.5-3.8-2c-1-1.1-1.8-2.4-3.2-4.4c-0.8-1.2-3.8-7.2-3.8-7.6c0-0.2-0.3-1.2-0.7-2.2
		c-1.7-4.3-2.1-7.7-2.1-15.6c0-8.2,0.3-10.6,2.5-18.1c1.7-5.9,1.1-6.8-2.4-3.4c-1.9,1.9-2.7,2.3-2.7,1.5c0-1,1.6-7.4,2.2-8.7
		c1.3-3,1.9-4.2,3.2-6.5c2.3-3.9,5.8-8,10-11.9l2.5-2.2l0.7,0.8c0.7,0.9,0.7,2.3-0.3,5.9c-0.3,1.1-0.7,4.4-0.9,7.5
		c-0.3,3.1-0.5,6.4-0.7,7.3l-0.2,1.7l2.4-2.7c5.3-5.9,9.1-9.4,11.7-11.1c3.7-2.4,7-4.2,7.2-3.9c0.1,0.1,0,0.9-0.3,1.7
		s-0.7,2.8-1,4.5c-0.2,1.7-0.6,3.6-0.8,4.3c-0.6,2-0.5,2.5,0.3,1.8c0.4-0.4,0.9-0.7,1.1-0.7c0.2,0,0.5-0.1,0.6-0.3
		c0.2-0.5,2.9-2.4,3.3-2.4c0.2,0,0.5-0.2,0.5-0.3c0.1-0.2,0.8-0.8,1.7-1.3c2.1-1.3,5.8-2,7.9-1.4c1.8,0.5,1.8,0.7,0.7,1.8
		c-4.9,4.4-9.9,13.4-11.7,21.1c-1.5,6.7-0.8,13.2,2,19c1.4,2.9,5.2,7.2,7.4,8.5c6.5,3.8,12.9,4,19.4,0.8c6.4-3.2,12.5-9,17.6-16.6
		c0.5-0.8,1.1-1.5,1.3-1.5c0.3,0,2,1.2,3.7,2.7c0.5,0.5,2,1.7,3.2,2.6c1.2,1,2.2,1.9,2.2,2c0,0.2,0.2,0.3,0.4,0.3s1,0.5,1.6,1.1
		c0.7,0.6,2,1.8,3.1,2.7c1,0.9,1.8,2,1.8,2.4c0,0.6-1.3,3.1-4,7.5c-5.6,9.2-14,17.4-22.3,21.8c-2.2,1.2-8.2,3.5-10.4,4
		C916.1,254.5,907,254.9,901.6,254.1z"/>
	<path class="st2" d="M729,236.2c0-0.4,10.5-6.7,11.1-6.7c0.2,0,0.4-0.2,0.4-0.3c0-0.2,0.5-0.6,1.1-0.8c2.7-1.4,6.2-3.9,7-5
		c0.5-0.7,1.2-2.5,1.6-4c0.7-2.6,0.7-5,0.7-45.6c0-47,0-46.5-2.3-50c-0.6-0.8-2.4-2.6-4.1-4c-4.8-3.8-11-9.9-11-10.9
		c0-0.2-0.3-0.4-0.6-0.5s-0.6-0.4-0.6-0.7c0-0.3-0.3-0.8-0.7-1.2c-1-1.1-4.7-8.4-4.7-9.2c0-0.3-0.3-1.5-0.8-2.6
		c-0.9-2.6-1-5.4-0.2-5.4c0.3,0,1.2,0.5,2,1c2.1,1.4,6.7,3.5,10.1,4.6c1,0.3,4.1,0.9,6.9,1.4c4.8,0.8,7.2,0.8,36.6,1
		c17.2,0.2,31.6,0.4,31.9,0.5c0.3,0.1,2.2,0.4,4.3,0.7c9.8,1,21.2,5.2,29.6,10.7c1.8,1.2,3.4,2.3,3.5,2.4s1.1,0.9,2.1,1.7
		c5.5,4.3,11.2,10.9,14.5,16.5c2.3,4,6.5,13.3,6.2,13.7c-0.1,0.2-0.8,0.6-1.6,1c-4,2-8.5,4.8-11.2,7c-1.8,1.5-12,11.5-12,11.8
		s5-0.6,12-2.2c1.8-0.4,3.8-0.7,4.5-0.6l1.2,0.1l-1.6,1.7c-7.5,7.8-11.2,14-13.4,23c-0.5,1.7-0.8,3.9-0.8,4.8c0,0.9-0.3,3.9-0.6,6.6
		c-0.3,2.7-0.5,5.7-0.5,6.7l0.1,1.8l1.3-2c0.8-1.1,1.5-2.1,1.7-2.2c0.2-0.1,0.4,3.3,0.4,9.2c0,10.7,0.4,9.6-4.2,12.9
		c-9.4,6.6-19,10.4-31.8,12.3c-3.4,0.5-9.9,0.7-46.2,0.8C748,236.4,729,236.4,729,236.2z M811.8,201.7c9.4-1.8,16.5-6.4,20.2-13.5
		c0.2-0.4,0.6-1.1,0.8-1.5c2.5-4.4,4-11.9,4-19.6c0-10.1-2.4-18.4-7.1-24.3c-1.8-2.3-5.2-5.5-6.4-6c-0.3-0.1-1.3-0.7-2.3-1.2
		c-4.8-2.7-10.2-3.6-21.8-3.6h-9v35v35.2h9.2C806.1,202.2,809.5,202.1,811.8,201.7z"/>
	<path class="st2" d="M1036.5,235.8c0-0.5,0.1-0.8,0.3-0.8c0.3,0,1.7-2.7,2.7-5.2c0.4-1,1-3.4,1.2-5.2c0.7-5.2-0.4-10.4-3.2-15.3
		c-0.8-1.3-2.3-3.3-3.3-4.4c-1.1-1.2-1.9-2.2-1.9-2.3s2.2-0.2,5-0.2c10.7,0,17.9-2.5,23.7-8.3c1.7-1.7,3.4-3.6,3.7-4.2
		c3.3-6.5,3.6-7.2,4.6-11.5c1.1-4.8,1.2-17,0.2-21.6c-1-4.1-3.1-9.6-4.7-11.9c-0.7-1-1.3-1.9-1.3-2c0-0.3-5.9-6-6.3-6
		c-0.1,0-1.2-0.6-2.5-1.3c-5.2-2.9-10.1-3.7-22.1-3.7h-9.2v1.2c0,1.2-0.1,1.2-1.2,1c-8.5-1.5-22.2,0.5-28.1,4.2
		c-2.4,1.5-2.5,0.6-0.3-1.9c1.1-1.3,1.7-2.1,1.3-1.9c-0.4,0.2-1.8,0.9-3.1,1.5s-3.3,1.7-4.5,2.3s-2.4,1.3-2.7,1.3
		c-0.5,0-0.6-1.1-0.7-6c-0.2-5.1-0.3-6.4-1-7.9c-0.8-2-2.7-4-5.2-5.9c-2.7-2-3.4-2.6-6.6-5.8c-3.6-3.7-6.7-8-8.7-12
		c-2.2-4.5-2.6-5.7-3.1-9.2c-0.5-2.9-0.5-3.2,0.2-3.2c0.4,0,1.1,0.3,1.6,0.7c1.7,1.3,8.2,4.2,11.1,5c7.1,1.9,10,2.1,43.3,2.3
		c17.2,0.1,31.4,0.3,31.8,0.5c0.3,0.1,2.3,0.4,4.4,0.7c4.8,0.5,10.4,1.9,16.4,4c2.3,0.8,9.4,4.3,11.5,5.7c5.9,3.8,7.8,5.4,11.9,9.5
		c3.4,3.4,7.3,8.1,8.7,10.4c0.2,0.3,1.1,1.8,1.9,3.3c2.4,4.1,5.3,11.1,6.5,15.7c1.5,5.9,1.8,8,2.2,12.7c0.9,11.7-0.7,23.6-4.5,33.1
		c-1.4,3.7-4,8.9-5.3,10.8c-0.6,0.9-1.1,1.7-1.1,1.9c0,0.9-7.9,9.9-11.4,12.9c-1.8,1.6-8.5,6.5-9.8,7.1c-0.3,0.2-1.3,0.7-2.1,1.2
		c-1.4,0.8-4.2,2.2-6.9,3.5c-7.5,3.3-17.1,5.3-28.6,5.9C1036.6,236.6,1036.5,236.6,1036.5,235.8z"/>
	<path class="st2" d="M985.7,204.2l-1.3-0.7l-0.1-14c-0.1-15.9-0.4-14,3.5-18.8c2.8-3.5,4.4-4.9,6.5-6.2c3.2-1.8,5.7-2.4,9.5-2.4
		c4.1,0,6.4,0.7,9.2,2.9c1,0.7,1.9,1.3,2,1.3s0.9-0.6,1.8-1.4c1.6-1.4,4.9-3.2,6.1-3.2c0.6,0,0.7,1.1,0.7,17.7
		c0,16.7,0,17.7-0.7,17.5c-1.7-0.7-6.4-1.8-9-2c-1.6-0.2-4.9,0-7.4,0.2l-4.5,0.5l-1.4-1.1c-1.2-0.9-4.8-3.2-10.9-6.7l-1.1-0.7
		l0.9,2.6c3.3,8.7,3.6,10.1,3.1,12.1C991.8,204.7,988.8,205.7,985.7,204.2z"/>
	<path class="st2" d="M911.4,192.6c0-0.2,0.4-0.5,0.9-0.7c0.9-0.3,4.5-4.1,4.5-4.7c0-0.2-1.4-0.2-3.3-0.1c-1.8,0.2-3.3,0.2-3.3,0.1
		c0-0.1,0.8-1,1.7-2c1.7-1.8,3.3-5.6,3.3-7.7c0-1.2-1.2-4.2-2.1-5.3c-3.3-4-10.5-5-15.7-2.2l-1.5,0.8l0.2-1.2
		c0.6-2.8,5.5-8.7,8.9-10.5c2.2-1.3,2.2-1.3-2.9-2.5c-1.7-0.4-3-0.8-3-1c0-0.5,3.2-2.3,5.4-3.1c1.2-0.4,3.3-1,4.8-1.4l2.7-0.7h-2.5
		c-2.2,0-8.3,1.3-10.4,2.2c-3.3,1.6-7.7,4.5-7.7,5.2c0,0.2,0.8,0.3,1.8,0.3c1.8,0,6.3,1.1,6.3,1.5c0,0.1-1.1,0.6-2.4,1
		c-5.4,1.7-14,6.5-18.4,10.6c-1,0.9-2,1.6-2.1,1.4c-0.2-0.2,0-1.2,0.3-2.5c0.3-1.2,0.6-3.7,0.7-5.6c0.2-2.9,0.1-3.5-0.7-4.7
		c-1.6-2.7-6.5-3.8-12.2-3c-1.6,0.3-3,0.4-3.1,0.3c-0.3-0.3,1-1.7,3.5-3.5c2.7-1.9,6.3-4,12.1-7c1.2-0.6,2.8-1.7,3.6-2.5
		c1.3-1.3,1.5-1.6,1.3-2.7c-0.3-1.8-3-5.2-5.7-7.1c-1.3-1-2.5-1.9-2.5-2.2c-0.2-0.4,8.2-0.2,11.8,0.3l1.7,0.2l-0.7-1.7
		c-0.4-0.9-0.9-2.8-1-4.1c-0.3-3,0.1-7.4,0.7-7.4c0.3,0,0.9,0.8,1.4,1.8c1.2,2.3,3.7,5.1,5.9,6.5c0.9,0.6,1.7,1.2,1.8,1.3
		c0.1,0.2,1.2,0.8,2.4,1.5s2.7,1.6,3.3,2s1.6,0.9,2.2,1.2c2.4,1.2,7.2,4.6,8.5,5.9c1,1,1.4,0.6,0.5-0.6c-1.6-2.1-5.8-5.9-6.9-6.4
		c-0.9-0.4-1.8-4.8-1.8-8.9c0-5.6,1.9-13.1,3.7-14.5c0.5-0.4,0.6-0.3,0.6,0.8c0,2.8,1.8,8,3.8,11.2c2.1,3.3,8,9.5,12.8,13.6
		c0.7,0.6,3.3,3,5.8,5.4c2.4,2.3,4.1,3.9,3.7,3.5c-0.3-0.4-0.7-0.9-0.7-1c0-0.3-2-2.6-4.4-5.1c-0.8-0.9-3.7-3.7-6.4-6.1
		c-6.4-5.9-6.7-6.3-6.7-11c0-3.5,0.5-6.2,1.8-8.7c0.6-1.2,1.1-1.1,1.1,0.2c0,1.7,1.4,6.3,2.5,8.2c0.5,1,1.1,2,1.3,2.3
		c0.9,1.9,6.1,7.6,11.7,12.7c5.7,5.3,8.5,8.4,10.3,11.2c2.5,4,3.5,7.2,3.5,10.7c0,2.5,0,2.6,1.5,3.5c1,0.7,1.6,1.4,1.9,2.6l0.5,1.6
		l1.2-0.8c1.6-1.1,2.3-1.8,3.2-3.3c0.4-0.7,0.9-1.3,1-1.3c0.7,0,0.3,7.1-0.5,9.6c-1.5,4.7-4.5,9.1-7.6,11.4
		c-1.9,1.3-2.4,1.1-1.8-0.8c0.5-2.2-0.2-4.6-2-6.3c-1.2-1.1-2.1-1.5-4.5-2c-1.7-0.3-4-0.7-5.2-0.7s-2.2-0.2-2.2-0.4s0.3-1,0.8-1.9
		c0.4-0.8,0.9-2.2,1-3c0.2-1.3,0.1-1.6-0.7-2.1c-1.3-0.9-6-1.2-11.1-0.7c-4,0.3-8.1,1.2-7.1,1.4c0.2,0.1,1.7,0.3,3.2,0.6
		c2.8,0.5,3,0.7,2.4,1.8c-1.2,2.2-1.9,4.5-1.9,6.3c0,3.1,1.1,3.8,3.2,2c0.7-0.5,1.2-0.9,1.3-0.9c0.1,0.1-0.1,1.3-0.4,2.8
		c-0.8,3.7-0.7,5,0.2,6c0.7,0.7,1.1,0.8,2.9,0.6c1.2-0.1,2.1-0.1,2.1,0c0,0.6-1.6,3.2-2.4,3.8c-1.5,1.3-4.9,3.6-5.4,3.6
		c-0.3,0-0.8,0.2-1.3,0.5C918,192.4,911.4,193.5,911.4,192.6z M934,155.2c-1.8-2.7-6-6.2-6-4.9c0,1,1.7,4,2.9,5.2
		c1.1,1.1,3.8,2.3,4.3,1.9C935.3,157.3,934.8,156.3,934,155.2z"/>
	<path class="st2" d="M969.2,191c-0.5-0.4-1.5-1.3-2.1-1.8c-2.3-2-6.2-4.9-8-5.8l-1.8-0.9l0.7-1c2.2-3.3,10.9-12.5,15.7-16.4
		c8.3-6.7,17.6-11.6,24-12.7c0.9-0.2,1.5-0.4,1.4-0.5c-0.5-0.5-8,1.5-13.5,3.5c-3.4,1.3-12.6,6.9-14.9,9c-3.5,3.4-5.3,5.3-5.3,5.5
		s-0.3,0.3-0.6,0.3s-0.6,0-0.6-0.1c0-0.7,1.4-4.3,2.4-6.4c3.4-7,10.6-15.3,16.7-19.5c1.5-1,2.5-1.3,2.5-0.7c0,0.2-0.2,0.6-0.5,0.9
		c-0.7,0.7-2,3-2.5,4.5s0.1,2,1.5,1.2c1-0.5,5.7-4.1,6.3-4.8c0.4-0.4,4-3.1,5.4-3.9c2.8-1.7,6.9-3.2,8.8-3.2c1.2,0,1.4,0.7,0.4,1
		c-1.1,0.4-3.9,2.4-4.9,3.5c-1.1,1.2-1.2,1.7-0.4,2.4c0.5,0.4,1.2,0.3,3.9-0.6c11.6-3.7,21.5-2.5,31.5,3.8c3.8,2.4,8.6,6.5,8.2,7
		c-0.2,0.1-1.6,0-3.3-0.2c-4.9-0.6-11.9,0.3-18.2,2.5c-2.2,0.7-5.7,2.5-6,2.9c-0.3,0.5-1.8,0.4-2.7-0.2c-0.4-0.3-1.8-0.9-3-1.4
		c-3.2-1.3-9.7-1.3-13.1,0c-3.8,1.4-6.8,3.2-9.2,5.6c-1.5,1.5-6,7.3-8,10.4c-3.5,5.2-3.2,4.8-6.7,11.5c-1.3,2.5-2.5,4.7-2.7,4.9
		C970.2,191.7,969.7,191.5,969.2,191z"/>
	<path class="st2" d="M938,133.9c-8.2-7.5-11.9-11.6-11.9-13.2c0-0.5,0.3-1.2,0.6-1.7c1-1.6,2.1-6.5,2.1-9.7s-1-7.4-2.2-9.4
		s-3.4-4-5.5-5.1c-1.9-1-2.7-1.1-5.3-1.1c-4.5,0-7.7,1.6-10.3,5.2c-2,2.6-2.8,4.9-3.2,8.5c-0.2,1.7-0.8,4.5-1.3,6.4
		c-0.8,2.6-1.1,4.2-1.3,8.2c-0.1,3-0.3,4.9-0.6,4.9c-0.7,0-5.6-3.9-6.8-5.5c-0.7-0.8-1.5-2.3-2-3.3s-0.9-2.2-1.1-2.6
		c-0.2-0.4-0.7-1.7-1.2-2.9c-1.1-2.7-2-4.6-2.3-4.6c-0.1,0-0.5,0.9-0.8,2s-1.2,4.1-2,6.6c-1.1,3.6-1.4,5.3-1.5,7.8
		c0,2.2-0.2,3.2-0.5,3.2c-0.2,0-0.5-0.3-0.7-0.7c-0.1-0.4-0.4-1-0.6-1.3c-2.1-3.3-3.1-8-3.1-14.6c0-7.1,1.1-11.8,3.8-16.8
		c1.5-2.7,5-7.1,7.3-8.9c1.2-1,2.2-1.9,2.3-2c0.1-0.2,1.2-0.8,2.3-1.6c1.8-1.1,2.8-1.7,6.6-3.4c0.5-0.2,3.2-1,7.1-2
		c0.8-0.2,4.9-0.4,9-0.4c6.7,0,7.9,0.1,11.2,1c5.7,1.5,8.7,2.8,12.5,5.4c1.7,1.1,7.9,7.5,7.9,8c0,0.2,0.2,0.7,0.5,1
		c1.2,1.5,3.2,6,4.2,9.7c1.2,4.5,1.1,13.7-0.2,18.1c-1.6,5.6-4,11.2-6.2,14.4c-0.5,0.8-0.9,1.5-0.9,1.7c0,0.4-1.4,2-1.8,2
		C941.8,137.2,940,135.7,938,133.9z"/>
</g>
<rect x="30" y="47.4" class="st1" width="702" height="239"/>
<text transform="matrix(1 0 0 1 159.0842 97.8156)" class="st3 st4 st5">Compliant with </text>
<text transform="matrix(1 0 0 1 202.2842 187.8156)" class="st3 st4 st5">Fifth Edition </text>
<text transform="matrix(1 0 0 1 47.5842 277.8156)" class="st3 st4 st5">Dungeons and Dragons</text>
</svg>
