<?xml version="1.0" encoding="utf-8"?>
<!-- Generator: Adobe Illustrator 21.1.0, SVG Export Plug-In . SVG Version: 6.00 Build 0)  -->
<svg version="1.1" id="Layer_1" xmlns="http://www.w3.org/2000/svg" xmlns:xlink="http://www.w3.org/1999/xlink" x="0px" y="0px"
	 viewBox="0 0 1140 360" style="enable-background:new 0 0 1140 360;" xml:space="preserve">
<style type="text/css">
	.st0{fill:#999999;}
	.st1{fill:#FFFFFF;stroke:#000000;stroke-width:0.25;stroke-miterlimit:10;}
	.st2{fill:#CC0000;}
	.st3{fill:none;stroke:#000000;stroke-width:0.1849;stroke-miterlimit:10;}
	.st4{fill:#CC0000;stroke:#000000;stroke-width:0.1849;stroke-miterlimit:10;}
	.st5{fill:#CC0000;stroke:#000000;stroke-width:0.1978;stroke-miterlimit:10;}
	.st6{fill:none;stroke:#000000;stroke-width:0.1978;stroke-miterlimit:10;}
	.st7{fill:#CC0000;stroke:#000000;stroke-width:0.1792;stroke-miterlimit:10;}
	.st8{fill:#CC0000;stroke:#000000;stroke-width:0.1659;stroke-miterlimit:10;}
	.st9{fill:none;stroke:#000000;stroke-width:0.1659;stroke-miterlimit:10;}
	.st10{fill:#CC0000;stroke:#000000;stroke-width:0.1416;stroke-miterlimit:10;}
	.st11{fill:#000064;}
</style>
<rect class="st0" width="1140" height="360"/>
<polygon class="st1" points="1140,149.5 1140,291.2 1106.4,360 797,360 802.2,349.3 943.3,59.8 945.8,54.8 "/>
<polygon class="st1" points="1080,264.4 937,360 809.4,360 802.2,349.3 648.8,119.8 828.1,0 903.3,0 943.3,59.8 "/>
<g>
	<polygon class="st2" points="798.4,260.6 792.5,255.2 795,233.6 801.9,229.7 805.2,245.7 	"/>
	<polygon class="st2" points="801.9,229.7 795,233.6 775.2,224.6 773.7,216.8 789.9,218.7 	"/>
	<polygon class="st2" points="798.4,260.6 784.1,268.6 767.9,266.8 771.2,259.5 792.5,255.2 	"/>
	<polygon class="st2" points="771.2,259.5 767.9,266.8 755.9,255.7 752.6,239.7 760.5,240.6 	"/>
	<polygon class="st2" points="773.7,216.8 775.2,224.6 760.5,240.6 752.6,239.7 759.4,224.8 	"/>
	<polygon class="st2" points="795,233.6 792.5,255.2 771.2,259.5 760.5,240.6 775.2,224.6 	"/>
	<polygon class="st3" points="798.4,260.6 784.1,268.6 767.9,266.8 755.9,255.7 752.6,239.7 759.4,224.8 773.7,216.8 789.9,218.7 
		801.9,229.7 805.2,245.7 	"/>
	<line class="st3" x1="752.6" y1="239.7" x2="760.5" y2="240.6"/>
	<line class="st3" x1="775.2" y1="224.6" x2="760.5" y2="240.6"/>
	<line class="st3" x1="771.2" y1="259.5" x2="760.5" y2="240.6"/>
	<line class="st3" x1="767.9" y1="266.8" x2="771.2" y2="259.5"/>
	<line class="st3" x1="792.5" y1="255.2" x2="771.2" y2="259.5"/>
	<line class="st3" x1="775.2" y1="224.6" x2="773.7" y2="216.8"/>
	<line class="st3" x1="775.2" y1="224.6" x2="795" y2="233.6"/>
	<line class="st3" x1="792.5" y1="255.2" x2="795" y2="233.6"/>
	<line class="st3" x1="801.9" y1="229.7" x2="795" y2="233.6"/>
	<line class="st3" x1="798.4" y1="260.6" x2="792.5" y2="255.2"/>
</g>
<g>
	<polygon class="st4" points="724.2,143.5 751.1,148.3 760.3,174 742.6,194.8 715.8,190 706.6,164.3 	"/>
	<polygon class="st4" points="727.7,153.1 750.2,172.2 722.4,182.2 	"/>
	<line class="st3" x1="724.2" y1="143.5" x2="727.7" y2="153.1"/>
	<line class="st3" x1="722.4" y1="182.2" x2="715.8" y2="190"/>
	<line class="st3" x1="706.6" y1="164.3" x2="722.4" y2="182.2"/>
	<line class="st3" x1="727.7" y1="153.1" x2="706.6" y2="164.3"/>
	<line class="st3" x1="750.2" y1="172.2" x2="751.1" y2="148.3"/>
	<line class="st3" x1="727.7" y1="153.1" x2="751.1" y2="148.3"/>
	<line class="st3" x1="750.2" y1="172.2" x2="760.3" y2="174"/>
	<line class="st3" x1="742.6" y1="194.8" x2="722.4" y2="182.2"/>
	<line class="st3" x1="750.2" y1="172.2" x2="742.6" y2="194.8"/>
</g>
<g>
	<polygon class="st5" points="790.6,116.4 777.9,158.2 820.4,148.2 	"/>
	<line class="st6" x1="796.3" y1="140.9" x2="777.9" y2="158.2"/>
	<line class="st6" x1="796.3" y1="140.9" x2="820.4" y2="148.2"/>
	<line class="st6" x1="790.6" y1="116.4" x2="796.3" y2="140.9"/>
</g>
<rect x="793.8" y="170.7" transform="matrix(0.5 -0.866 0.866 0.5 241.6263 800.593)" class="st7" width="40.7" height="40.7"/>
<g>
	
		<rect x="801.6" y="274.6" transform="matrix(0.9023 -0.431 0.431 0.9023 -46.3427 382.2871)" class="st8" width="37.7" height="37.7"/>
	<line class="st9" x1="834.4" y1="294.6" x2="829.3" y2="268.3"/>
	<line class="st9" x1="808.9" y1="285.5" x2="829.3" y2="268.3"/>
	<line class="st9" x1="845.6" y1="302.3" x2="834.4" y2="294.6"/>
	<line class="st9" x1="808.9" y1="285.5" x2="795.3" y2="284.5"/>
	<line class="st9" x1="834.4" y1="294.6" x2="819.2" y2="296.8"/>
	<line class="st9" x1="808.9" y1="285.5" x2="819.2" y2="296.8"/>
	<line class="st9" x1="811.5" y1="318.6" x2="819.2" y2="296.8"/>
</g>
<g>
	
		<rect x="688.3" y="210.3" transform="matrix(5.670913e-02 -0.9984 0.9984 5.670913e-02 438.2545 922.1066)" class="st8" width="37.7" height="37.7"/>
	<line class="st9" x1="714.9" y1="217.4" x2="689.4" y2="209.2"/>
	<line class="st9" x1="694.7" y1="235.5" x2="689.4" y2="209.2"/>
	<line class="st9" x1="727" y1="211.4" x2="714.9" y2="217.4"/>
	<line class="st9" x1="694.7" y1="235.5" x2="687.3" y2="246.9"/>
	<line class="st9" x1="714.9" y1="217.4" x2="709.5" y2="231.8"/>
	<line class="st9" x1="694.7" y1="235.5" x2="709.5" y2="231.8"/>
	<line class="st9" x1="724.9" y1="249" x2="709.5" y2="231.8"/>
</g>
<g>
	<polygon class="st10" points="877.8,232.7 866.1,250.1 847.8,244.7 840,227.3 855.6,213.4 872.8,216 	"/>
	<polygon class="st10" points="872.8,216 840,227.3 866.1,250.1 	"/>
</g>
<g>
	<path class="st11" d="M267.2,56.4c0,1.2,0.4,2.5,1.3,3.7c0.8,1.3,3,3.1,6.4,5.6c6.7,4.7,11.1,8.5,13.3,11.4c2.2,2.9,3.3,6,3.3,9.2
		c0,4.6-1.8,8.2-5.4,10.8s-7.5,3.9-11.8,3.9c-3,0-6.1-0.6-9.3-1.9c-3.2-1.3-4.8-2.6-4.8-4c0-0.3,0-1,0.1-1.9
		c0.1-0.9,0.1-2.1,0.1-3.5c0-0.5,0-1.1-0.1-1.8c-0.1-0.7-0.1-1.2-0.1-1.4c0-0.9,0.5-1.4,1.6-1.4c1.2,0,1.8,0.9,2,2.7
		c0.3,3,1.3,5.3,3.1,7c1.8,1.7,4.3,2.5,7.5,2.5c3.2,0,5.9-0.9,8-2.7c2.1-1.8,3.2-4.2,3.2-7.1c0-1.8-0.7-3.6-2.1-5.6
		c-1.4-2-5.2-5.1-11.2-9.4c-2.5-1.8-4.4-3.3-5.9-4.5c-1.4-1.2-2.6-2.7-3.6-4.4c-1-1.7-1.4-3.6-1.4-5.8c0-3.5,1.6-6.4,4.7-8.7
		c3.2-2.3,6.8-3.4,10.9-3.4c2.3,0,4.9,0.6,7.5,1.7c2.7,1.2,4,2.5,4,4.1c0,0.2,0,0.6,0,1c0,0.5,0,1.2,0,2.1c0,0.2,0,0.7,0.1,1.4
		c0,1.6-0.6,2.4-1.7,2.4c-0.4,0-0.8-0.2-1.2-0.6c-0.4-0.4-0.6-0.8-0.6-1.2c0-2.4-0.8-4.2-2.4-5.5c-1.6-1.3-3.6-1.9-5.9-1.9
		c-2.7,0-4.9,0.7-6.8,2.2C268.1,53,267.2,54.6,267.2,56.4z"/>
	<path class="st11" d="M305.1,91.5c0,2.1,0.1,3.4,0.3,3.9c0.2,0.6,0.5,0.9,1,0.9c0.8,0,1.8-0.4,2.9-1.3c1.2-0.9,1.9-1.3,2.3-1.3
		c0.3,0,0.6,0.1,0.9,0.4c0.2,0.3,0.4,0.7,0.4,1.1c0,0.7-1,1.8-2.9,3.4c-1.9,1.6-3.6,2.3-5.1,2.3c-3.9,0-5.8-2.8-5.8-8.5V78.4
		c0-0.5-0.1-0.7-0.2-0.7c-0.1,0-0.8-0.1-2.1-0.1c-1,0-1.6-0.1-2-0.4c-0.3-0.3-0.5-0.7-0.5-1.2c0-0.5,0.1-0.8,0.4-1
		c0.3-0.2,0.8-0.4,1.5-0.6c0.7-0.2,1.3-0.5,1.7-0.7c0.4-0.3,1-0.9,1.7-1.8c0.7-0.9,1.2-2.1,1.5-3.8s0.5-3.9,0.5-7
		c0-1.4,0.4-2.2,1.2-2.2c0.9,0,1.4,0.2,1.7,0.6c0.2,0.4,0.3,1.1,0.3,2v12.2c0,0.5,0.3,0.7,1,0.7h5.2c1,0,1.6,0.5,1.6,1.4
		c0,1.1-0.8,1.6-2.3,1.6h-4.6c-0.3,0-0.5,0.1-0.6,0.2c-0.1,0.1-0.1,0.4-0.1,0.8V91.5z"/>
	<path class="st11" d="M331.9,73.2c4.1,0,7.6,1.4,10.6,4.2s4.5,6,4.5,9.6c0,4.1-1.4,7.4-4.3,10c-2.9,2.6-6.7,3.8-11.6,3.8
		c-3.8,0-7.2-1.3-10.3-3.9c-3-2.6-4.6-5.9-4.6-9.7c0-3.7,1.3-7,4-9.8C323,74.6,326.8,73.2,331.9,73.2z M331.9,97.6c2.8,0,5-1,6.7-3
		c1.7-2,2.5-4.6,2.5-7.7c0-3.1-0.9-5.6-2.7-7.5c-1.8-2-4.1-2.9-6.8-2.9c-2.8,0-5,1-6.6,2.9c-1.6,1.9-2.3,4.4-2.3,7.4
		c0,3.3,0.9,6,2.6,7.9C327,96.6,329.2,97.6,331.9,97.6z"/>
	<path class="st11" d="M360.2,81.9l0.1,1c0.1,0,0.7-1.2,1.7-3.5c1-2.3,2-4,3-4.9c1-1,2-1.5,3.1-1.5c0.8,0,1.5,0.1,1.9,0.4
		c0.4,0.3,0.6,0.6,0.6,1c0,0.6-0.1,1.2-0.4,1.5c-0.3,0.4-0.8,0.9-1.5,1.4c-3.1,2.4-5.4,5.2-6.7,8.6c-1.4,3.4-2.1,6.2-2.1,8.4
		c0,1,0.1,1.8,0.4,2.1c0.3,0.4,1,0.7,2,0.9c1.1,0.3,1.8,0.5,2.1,0.8c0.3,0.3,0.5,0.6,0.5,1c0,0.7-0.4,1.1-1.3,1.1
		c-0.7,0-1.6-0.1-2.8-0.3c-1.2-0.2-2.5-0.3-3.9-0.3c-0.9,0-1.9,0.1-2.8,0.3s-1.6,0.3-1.8,0.3c-0.7,0-1.2-0.1-1.7-0.4
		c-0.4-0.3-0.6-0.6-0.6-1c0-0.3,0.1-0.6,0.3-0.8c0.2-0.2,0.9-0.5,2-0.9c1.1-0.4,1.7-0.7,2-1.1c0.2-0.4,0.4-1.5,0.4-3.4V81.8
		c0-0.7-0.2-1.3-0.5-1.9c-0.3-0.6-1-1-2-1.3c-1-0.3-1.6-0.6-1.8-0.8c-0.2-0.2-0.3-0.5-0.3-0.7c0-0.8,0.6-1.2,1.7-1.2
		c0.3,0,0.9,0.1,1.6,0.2c0.7,0.1,1.3,0.2,1.6,0.2c0.2,0,0.6,0,1.2-0.1c0.6-0.1,1.2-0.1,2-0.1c1.3,0,2,1.4,2,4.2V81.9z"/>
	<path class="st11" d="M395.5,85.3c0.6,0,0.9-0.1,1.1-0.3c0.2-0.2,0.3-0.5,0.3-1.1c0-1.9-0.7-3.6-2.2-5.2c-1.5-1.6-3.6-2.4-6.6-2.4
		c-2,0-4.1,1-6.3,2.9c-2.2,1.9-3.2,4.7-3.2,8.2c0,2.6,1.1,4.9,3.4,7c2.3,2.1,4.8,3.1,7.7,3.1c2.1,0,4.5-0.7,6.9-2
		c1-0.5,1.6-0.8,1.9-0.8c0.4,0,0.8,0.1,1,0.4c0.3,0.2,0.4,0.6,0.4,0.9c0,0.9-1.3,2-4,3.2s-5.5,1.9-8.3,1.9c-4.2,0-7.8-1.4-10.7-4.3
		c-2.9-2.9-4.3-6.3-4.3-10.3c0-3.6,1.6-6.8,4.7-9.3c3.2-2.6,6.7-3.9,10.6-3.9c5.1,0,8.9,1.3,11.5,3.9c2.5,2.6,3.8,5.7,3.8,9.4
		c0,0.8-0.2,1.3-0.6,1.4c-0.4,0.2-1.1,0.3-2.2,0.3h-16.8c-1.4,0-2-0.5-2-1.5c0-1,0.7-1.4,2.1-1.4H395.5z"/>
	<path class="st11" d="M443.2,70.2c0.2-0.1,0.4-0.3,0.7-0.7l0.9-1.5c6.2-10,9.4-15.6,9.4-16.7c0-0.3-0.1-0.6-0.4-0.8
		c-0.2-0.2-0.9-0.3-2-0.4c-1.1,0-1.8-0.2-2.1-0.5c-0.3-0.3-0.5-0.7-0.5-1.2c0-0.5,0.3-0.9,0.9-1.2c0.6-0.3,1.3-0.5,2-0.5
		c0.6,0,1.6,0.1,2.9,0.3c1.3,0.2,2.3,0.3,3,0.3c0.6,0,1.5-0.1,2.7-0.3c1.2-0.2,2-0.3,2.6-0.3c0.6,0,1.2,0.1,1.7,0.4
		c0.5,0.3,0.8,0.7,0.8,1.1c0,1.2-0.9,1.8-2.7,1.8c-1.2,0-2.4,0.3-3.3,0.9c-1,0.6-2,1.9-3.1,3.7l-1.9,3.1
		c-6.8,11.2-10.3,17.3-10.3,18.2v15.6c0,2.4,0.2,3.9,0.5,4.4c0.3,0.5,1,0.9,2,1.2c1,0.2,1.6,0.5,1.8,0.7c0.2,0.2,0.3,0.5,0.3,0.9
		c0,0.5-0.2,0.9-0.6,1.2c-0.4,0.3-0.8,0.5-1.4,0.5c-0.6,0-1.5-0.1-2.7-0.3s-2.1-0.3-2.8-0.3c-0.6,0-1.5,0.1-2.6,0.3
		c-1.1,0.2-2,0.3-2.5,0.3c-0.8,0-1.5-0.1-2-0.4c-0.6-0.3-0.9-0.7-0.9-1.2c0-0.4,0.1-0.8,0.3-1.1c0.2-0.3,0.8-0.5,1.6-0.7
		s1.5-0.4,1.8-0.7c0.3-0.3,0.5-0.7,0.6-1.1c0-0.4,0.1-1.3,0.1-2.7V75.2c0-0.5-0.1-1-0.4-1.4L424.4,55c-1.2-1.6-2.2-2.8-3-3.5
		s-1.9-1-3.3-1c-1.7,0-2.5-0.6-2.5-1.9c0-1.2,0.8-1.7,2.5-1.7c0.8,0,2.1,0.1,3.7,0.3c1.6,0.2,2.9,0.3,3.7,0.3c0.7,0,1.7-0.1,3.1-0.3
		c1.4-0.2,2.5-0.3,3.2-0.3c2.4,0,3.6,0.6,3.6,1.7c0,0.5-0.2,0.8-0.5,1.1c-0.3,0.3-1,0.5-2.1,0.6c-1.1,0.1-1.7,0.3-2,0.5
		c-0.3,0.2-0.4,0.5-0.4,0.8c0,0.8,2,3.9,5.9,9.1c0.5,0.7,1.8,2.5,3.7,5.3C442.1,68.8,443.1,70.2,443.2,70.2z"/>
	<path class="st11" d="M481.8,73.2c4.1,0,7.6,1.4,10.6,4.2s4.5,6,4.5,9.6c0,4.1-1.4,7.4-4.3,10c-2.9,2.6-6.7,3.8-11.6,3.8
		c-3.8,0-7.2-1.3-10.3-3.9c-3-2.6-4.6-5.9-4.6-9.7c0-3.7,1.3-7,4-9.8C472.9,74.6,476.8,73.2,481.8,73.2z M481.9,97.6
		c2.8,0,5-1,6.7-3c1.7-2,2.5-4.6,2.5-7.7c0-3.1-0.9-5.6-2.7-7.5c-1.8-2-4.1-2.9-6.8-2.9c-2.8,0-5,1-6.6,2.9
		c-1.6,1.9-2.3,4.4-2.3,7.4c0,3.3,0.9,6,2.6,7.9C477,96.6,479.2,97.6,481.9,97.6z"/>
	<path class="st11" d="M509.9,93.4c0,1.2,0.5,2.2,1.4,3c0.9,0.8,2,1.2,3.3,1.2c0.8,0,1.7-0.3,2.7-0.9c1.1-0.6,1.8-0.9,2.3-0.9
		c0.5,0,0.7,0.3,0.7,0.9c0,0.7-0.9,1.6-2.7,2.6c-1.8,1-3.9,1.6-6.2,1.6c-1.8,0-3.3-0.5-4.7-1.6c-1.3-1.1-2.1-2.3-2.3-3.7
		c-0.2-1.3-0.3-6.4-0.3-15.1c0-1.2-1.2-2-3.6-2.6c-1-0.2-1.6-0.6-1.6-1.2c0-0.4,0.2-0.7,0.5-0.9s0.7-0.3,1.2-0.3
		c0.1,0,0.9,0.1,2.1,0.3c1.3,0.2,2.4,0.3,3.3,0.3c0.3,0,0.8-0.1,1.4-0.3c0.6-0.2,1-0.3,1.2-0.3c0.8,0,1.2,1.7,1.2,5V93.4z
		 M521.9,80.9c0-1.8-1-2.8-2.9-3c-1.1-0.2-1.9-0.4-2.2-0.6c-0.3-0.3-0.4-0.6-0.4-1c0-0.9,0.7-1.4,2.1-1.4c0.4,0,1.1,0.1,2.2,0.4
		c1.1,0.3,2.3,0.4,3.6,0.4c0.3,0,0.8,0,1.3-0.1c0.5-0.1,0.8-0.1,1-0.1c0.7,0,1,0.7,1,2.2c0,11.2,0.1,17.2,0.3,17.9
		c0.2,0.7,1.2,1.3,3,1.7c0.9,0.2,1.5,0.5,1.7,0.7c0.2,0.2,0.3,0.4,0.3,0.7c0,0.3-0.2,0.6-0.6,0.9c-0.4,0.3-0.9,0.4-1.6,0.4
		c-0.3,0-0.9-0.1-2-0.3c-1.1-0.2-1.8-0.3-2.2-0.3c-0.5,0-1,0.1-1.7,0.3c-0.7,0.2-1.1,0.3-1.3,0.3c-0.5,0-0.9-0.1-1.1-0.4
		c-0.2-0.3-0.3-1-0.4-2.2c-0.1-1.1-0.1-3.4-0.1-6.6V80.9z"/>
	<path class="st11" d="M546.6,81.9l0.1,1c0.1,0,0.7-1.2,1.7-3.5c1-2.3,2-4,3-4.9c1-1,2-1.5,3.1-1.5c0.8,0,1.5,0.1,1.9,0.4
		c0.4,0.3,0.6,0.6,0.6,1c0,0.6-0.1,1.2-0.4,1.5s-0.8,0.9-1.5,1.4c-3.1,2.4-5.4,5.2-6.7,8.6c-1.4,3.4-2.1,6.2-2.1,8.4
		c0,1,0.1,1.8,0.4,2.1c0.3,0.4,1,0.7,2,0.9c1.1,0.3,1.8,0.5,2.1,0.8c0.3,0.3,0.5,0.6,0.5,1c0,0.7-0.4,1.1-1.3,1.1
		c-0.7,0-1.6-0.1-2.8-0.3c-1.2-0.2-2.5-0.3-3.9-0.3c-0.9,0-1.9,0.1-2.8,0.3s-1.6,0.3-1.8,0.3c-0.7,0-1.2-0.1-1.7-0.4
		c-0.4-0.3-0.6-0.6-0.6-1c0-0.3,0.1-0.6,0.3-0.8c0.2-0.2,0.9-0.5,2-0.9c1.1-0.4,1.7-0.7,2-1.1c0.2-0.4,0.4-1.5,0.4-3.4V81.8
		c0-0.7-0.2-1.3-0.5-1.9c-0.3-0.6-1-1-2-1.3c-1-0.3-1.6-0.6-1.8-0.8c-0.2-0.2-0.3-0.5-0.3-0.7c0-0.8,0.6-1.2,1.7-1.2
		c0.3,0,0.9,0.1,1.6,0.2c0.7,0.1,1.3,0.2,1.6,0.2c0.2,0,0.6,0,1.2-0.1c0.6-0.1,1.2-0.1,2-0.1c1.3,0,2,1.4,2,4.2V81.9z"/>
	<path class="st11" d="M618.3,88.5c0.4,0,0.7,0.1,1,0.4c0.3,0.3,0.4,0.5,0.4,0.8c0,0.9-1,2.2-2.9,4.1c-2,1.9-4.5,3.5-7.7,4.8
		c-3.2,1.3-6.5,2-10.1,2c-5.7,0-10.7-1.2-14.9-3.7c-4.2-2.5-7.4-6-9.7-10.4c-2.2-4.4-3.4-9.1-3.4-13.8c0-4.8,1.1-9.3,3.3-13.5
		c2.2-4.2,5.3-7.5,9.4-9.8s8.8-3.5,14.1-3.5c3.4,0,6.6,0.4,9.5,1.3c2.9,0.9,5.2,2,6.8,3.2c1.7,1.3,2.5,2.2,2.5,2.9c0,1,0,2-0.1,2.8
		c0,0.8-0.1,1.3-0.1,1.5c0,0.3,0.1,0.7,0.3,1.3c0.2,0.6,0.3,1.2,0.3,1.7c0,0.8-0.5,1.2-1.5,1.2c-0.3,0-0.6-0.1-1-0.4
		s-0.8-1.1-1.4-2.5c-1.3-2.9-2.7-4.9-4.2-6.2c-2.6-2.3-6.3-3.4-11-3.4c-6,0-10.7,2.2-14.1,6.6c-3.4,4.4-5,10.1-5,17
		c0,7.6,1.8,13.5,5.5,17.9c3.6,4.4,8.5,6.6,14.7,6.6c1.6,0,4.1-0.5,7.5-1.6c3.4-1.1,6.8-3.1,10.1-6.2
		C617.3,88.8,617.9,88.5,618.3,88.5z"/>
	<path class="st11" d="M632.5,94.6c0,0.7,0.2,1.3,0.5,1.7c0.4,0.5,1.2,0.8,2.4,1c1.2,0.2,2,0.4,2.3,0.7s0.4,0.7,0.4,1.1
		c0,0.8-0.7,1.2-2.1,1.2c-0.7,0-1.8-0.1-3.3-0.2c-1.4-0.2-2.5-0.2-3.3-0.2c-0.7,0-1.7,0.1-3,0.2c-1.3,0.2-2.3,0.2-3,0.2
		c-1.7,0-2.6-0.4-2.6-1.3c0-0.4,0.1-0.8,0.4-1s1-0.5,2.3-0.6c1.3-0.1,2.1-0.6,2.5-1.3c0.4-0.7,0.6-1.6,0.6-2.6V53.9
		c0-0.6-0.2-1.2-0.6-1.6c-0.4-0.5-1.2-0.9-2.5-1.4s-1.9-0.7-2.2-1c-0.2-0.2-0.3-0.5-0.3-0.7c0-0.9,0.7-1.3,2.2-1.3
		c0.4,0,1.1,0,1.9,0.1c0.9,0.1,1.5,0.1,1.9,0.1c0.4,0,1.1-0.1,1.9-0.3c0.8-0.2,1.4-0.3,1.8-0.3c0.5,0,1,0.2,1.3,0.5
		c0.3,0.3,0.5,1.1,0.5,2.5V94.6z M650.9,94c0,0.9,0.2,1.6,0.6,2.3s1.2,1,2.4,1.2c1.2,0.2,1.9,0.4,2.2,0.6s0.3,0.6,0.3,1
		c0,0.6-0.2,0.9-0.5,1c-0.4,0.1-1.1,0.2-2.1,0.2c-0.6,0-1.6-0.1-2.9-0.2c-1.3-0.1-2.3-0.2-2.9-0.2c-0.7,0-1.7,0.1-3,0.2
		s-2.4,0.2-3,0.2c-1.6,0-2.3-0.5-2.3-1.6c0-0.4,0.1-0.7,0.4-0.9c0.2-0.2,1-0.4,2.2-0.6c1.2-0.1,2.1-0.5,2.5-1.1
		c0.4-0.6,0.6-1.3,0.6-2.2c0-1.3,0-3.2-0.1-5.7c0-2.5-0.1-4.4-0.1-5.7c0-1.1-0.3-2-1-2.7c-0.7-0.6-1.6-0.9-2.8-0.9s-2.6,0.6-4.1,1.8
		c-1,0.7-1.7,1.1-2.2,1.1c-0.2,0-0.5-0.1-0.8-0.4c-0.3-0.3-0.4-0.5-0.4-0.8c0-1.3,1.3-2.6,3.8-4.1c2.5-1.5,4.6-2.3,6.1-2.3
		c1.5,0,2.9,0.4,4.3,1.3c1.4,0.9,2.3,2,2.7,3.3c0.2,0.6,0.4,2.6,0.4,6c0,1.5,0,3.2-0.1,5.3C650.9,92.4,650.9,93.6,650.9,94z"/>
	<path class="st11" d="M685.1,93.4c0,1.8,1.2,3,3.5,3.7c0.6,0.2,1,0.4,1.3,0.6c0.3,0.2,0.4,0.6,0.4,1.3c0,0.3-0.2,0.6-0.6,0.8
		c-0.4,0.2-0.8,0.4-1.2,0.4c-0.5,0-1.1-0.1-1.9-0.3s-1.4-0.3-1.9-0.3c-0.6,0-1.3,0.1-2.1,0.3c-0.9,0.2-1.4,0.3-1.7,0.3
		c-0.3,0-0.7-0.1-1-0.4c-0.3-0.2-0.5-0.5-0.5-0.7c0-0.4-0.1-0.6-0.4-0.6c-0.2,0-0.4,0.1-0.7,0.3c-2.8,1.7-5.7,2.6-8.9,2.6
		c-1.5,0-3.2-0.4-5.1-1.2c-1.9-0.8-3.4-2-4.5-3.6s-1.7-3.6-1.7-6c0-2.5,1.2-4.8,3.6-6.7c2.4-2,5.5-2.9,9.4-2.9
		c1.3,0,2.7,0.4,4.3,1.1c1.5,0.7,2.3,1.5,2.3,2.2c0,0.4-0.2,0.7-0.5,0.9s-0.7,0.3-1.2,0.3c-0.3,0-0.9-0.2-1.9-0.7
		c-0.9-0.4-1.9-0.7-2.9-0.7c-2,0-3.7,0.6-5,1.8s-2,2.8-2,4.7c0,2.3,0.8,4,2.3,5.3s3.3,1.8,5.2,1.8c1.8,0,3.4-0.6,4.9-1.8
		c1.5-1.2,2.3-2.7,2.3-4.7v-9.9c0-1.5-0.5-2.7-1.5-3.6c-1-0.9-2.3-1.4-4-1.4c-2.1,0-4.2,0.7-6.2,2c-0.7,0.5-1.1,0.7-1.4,0.7
		c-0.6,0-1.1-0.2-1.5-0.5s-0.6-0.7-0.6-1.2c0-1.2,1.1-2.2,3.3-3c2.2-0.8,4.6-1.2,7.2-1.2c3.2,0,5.8,0.8,7.7,2.4
		c2,1.6,2.9,3.5,2.9,5.7V93.4z"/>
	<path class="st11" d="M703.7,81.9l0.1,1c0.1,0,0.7-1.2,1.7-3.5c1-2.3,2-4,3-4.9c1-1,2-1.5,3.1-1.5c0.8,0,1.5,0.1,1.9,0.4
		c0.4,0.3,0.6,0.6,0.6,1c0,0.6-0.1,1.2-0.4,1.5s-0.8,0.9-1.5,1.4c-3.1,2.4-5.4,5.2-6.7,8.6c-1.4,3.4-2.1,6.2-2.1,8.4
		c0,1,0.1,1.8,0.4,2.1c0.3,0.4,1,0.7,2,0.9c1.1,0.3,1.8,0.5,2.1,0.8c0.3,0.3,0.5,0.6,0.5,1c0,0.7-0.4,1.1-1.3,1.1
		c-0.7,0-1.6-0.1-2.8-0.3c-1.2-0.2-2.5-0.3-3.9-0.3c-0.9,0-1.9,0.1-2.8,0.3c-1,0.2-1.6,0.3-1.8,0.3c-0.7,0-1.2-0.1-1.7-0.4
		c-0.4-0.3-0.6-0.6-0.6-1c0-0.3,0.1-0.6,0.3-0.8c0.2-0.2,0.9-0.5,2-0.9s1.7-0.7,2-1.1s0.4-1.5,0.4-3.4V81.8c0-0.7-0.2-1.3-0.5-1.9
		c-0.3-0.6-1-1-2-1.3c-1-0.3-1.6-0.6-1.8-0.8c-0.2-0.2-0.3-0.5-0.3-0.7c0-0.8,0.6-1.2,1.7-1.2c0.3,0,0.9,0.1,1.6,0.2
		c0.7,0.1,1.3,0.2,1.6,0.2c0.2,0,0.6,0,1.2-0.1c0.6-0.1,1.2-0.1,2-0.1c1.3,0,2,1.4,2,4.2V81.9z"/>
	<path class="st11" d="M743.2,93.4c0,1.8,1.2,3,3.5,3.7c0.6,0.2,1,0.4,1.3,0.6c0.3,0.2,0.4,0.6,0.4,1.3c0,0.3-0.2,0.6-0.6,0.8
		c-0.4,0.2-0.8,0.4-1.2,0.4c-0.5,0-1.1-0.1-1.9-0.3s-1.4-0.3-1.9-0.3c-0.6,0-1.3,0.1-2.1,0.3c-0.9,0.2-1.4,0.3-1.7,0.3
		c-0.3,0-0.7-0.1-1-0.4c-0.3-0.2-0.5-0.5-0.5-0.7c0-0.4-0.1-0.6-0.4-0.6c-0.2,0-0.4,0.1-0.7,0.3c-2.8,1.7-5.7,2.6-8.9,2.6
		c-1.5,0-3.2-0.4-5.1-1.2c-1.9-0.8-3.4-2-4.5-3.6s-1.7-3.6-1.7-6c0-2.5,1.2-4.8,3.6-6.7c2.4-2,5.5-2.9,9.4-2.9
		c1.3,0,2.7,0.4,4.3,1.1c1.5,0.7,2.3,1.5,2.3,2.2c0,0.4-0.2,0.7-0.5,0.9s-0.7,0.3-1.2,0.3c-0.3,0-0.9-0.2-1.9-0.7
		c-0.9-0.4-1.9-0.7-2.9-0.7c-2,0-3.7,0.6-5,1.8s-2,2.8-2,4.7c0,2.3,0.8,4,2.3,5.3s3.3,1.8,5.2,1.8c1.8,0,3.4-0.6,4.9-1.8
		c1.5-1.2,2.3-2.7,2.3-4.7v-9.9c0-1.5-0.5-2.7-1.5-3.6c-1-0.9-2.3-1.4-4-1.4c-2.1,0-4.2,0.7-6.2,2c-0.7,0.5-1.1,0.7-1.4,0.7
		c-0.6,0-1.1-0.2-1.5-0.5s-0.6-0.7-0.6-1.2c0-1.2,1.1-2.2,3.3-3c2.2-0.8,4.6-1.2,7.2-1.2c3.2,0,5.8,0.8,7.7,2.4
		c2,1.6,2.9,3.5,2.9,5.7V93.4z"/>
	<path class="st11" d="M777.4,94.7c0.7,0,1,0.6,1,1.7c0,0.7-1.2,1.7-3.7,2.8c-2.5,1.2-5.1,1.7-7.8,1.7c-4.4,0-8.3-1.3-11.4-4
		c-3.2-2.7-4.8-6.1-4.8-10.2c0-3.6,1.5-6.8,4.5-9.6c3-2.8,6.6-4.1,10.8-4.1c2.2,0,4.8,0.5,7.7,1.4c2.9,0.9,4.3,1.8,4.3,2.5
		c0,1.4,0.1,2.5,0.2,3.3c0.1,0.9,0.2,1.3,0.2,1.5c0,1.1-0.5,1.6-1.5,1.6c-0.8,0-1.4-0.7-1.8-2.2c-0.4-1.5-1.3-2.6-2.7-3.5
		c-1.4-0.9-3.1-1.3-5.1-1.3c-2.5,0-4.9,0.9-7,2.8c-2.2,1.9-3.2,4.5-3.2,7.9c0,3.1,1.2,5.7,3.6,7.7c2.4,2,4.9,3,7.6,3
		c1,0,1.9-0.1,3-0.4c1-0.2,2.2-0.7,3.4-1.5C775.9,95.1,776.8,94.7,777.4,94.7z"/>
	<path class="st11" d="M792.3,91.5c0,2.1,0.1,3.4,0.3,3.9c0.2,0.6,0.5,0.9,1,0.9c0.8,0,1.8-0.4,2.9-1.3s1.9-1.3,2.3-1.3
		c0.3,0,0.6,0.1,0.9,0.4c0.2,0.3,0.4,0.7,0.4,1.1c0,0.7-1,1.8-2.9,3.4c-1.9,1.6-3.6,2.3-5.1,2.3c-3.9,0-5.8-2.8-5.8-8.5V78.4
		c0-0.5-0.1-0.7-0.2-0.7c-0.1,0-0.8-0.1-2.1-0.1c-1,0-1.6-0.1-2-0.4c-0.3-0.3-0.5-0.7-0.5-1.2c0-0.5,0.1-0.8,0.4-1
		c0.3-0.2,0.8-0.4,1.5-0.6c0.7-0.2,1.3-0.5,1.7-0.7c0.4-0.3,1-0.9,1.7-1.8c0.7-0.9,1.2-2.1,1.5-3.8s0.5-3.9,0.5-7
		c0-1.4,0.4-2.2,1.2-2.2c0.9,0,1.4,0.2,1.7,0.6c0.2,0.4,0.3,1.1,0.3,2v12.2c0,0.5,0.3,0.7,1,0.7h5.2c1,0,1.6,0.5,1.6,1.4
		c0,1.1-0.8,1.6-2.3,1.6H793c-0.3,0-0.5,0.1-0.6,0.2c-0.1,0.1-0.1,0.4-0.1,0.8V91.5z"/>
	<path class="st11" d="M826.3,85.3c0.6,0,0.9-0.1,1.1-0.3c0.2-0.2,0.3-0.5,0.3-1.1c0-1.9-0.7-3.6-2.2-5.2c-1.5-1.6-3.6-2.4-6.6-2.4
		c-2,0-4.1,1-6.3,2.9c-2.2,1.9-3.2,4.7-3.2,8.2c0,2.6,1.1,4.9,3.4,7c2.3,2.1,4.8,3.1,7.7,3.1c2.1,0,4.5-0.7,6.9-2
		c1-0.5,1.6-0.8,1.9-0.8c0.4,0,0.8,0.1,1,0.4c0.3,0.2,0.4,0.6,0.4,0.9c0,0.9-1.3,2-4,3.2s-5.5,1.9-8.3,1.9c-4.2,0-7.8-1.4-10.7-4.3
		s-4.3-6.3-4.3-10.3c0-3.6,1.6-6.8,4.7-9.3c3.2-2.6,6.7-3.9,10.6-3.9c5.1,0,8.9,1.3,11.5,3.9c2.5,2.6,3.8,5.7,3.8,9.4
		c0,0.8-0.2,1.3-0.6,1.4c-0.4,0.2-1.1,0.3-2.2,0.3h-16.8c-1.4,0-2-0.5-2-1.5c0-1,0.7-1.4,2.1-1.4H826.3z"/>
	<path class="st11" d="M847.3,81.9l0.1,1c0.1,0,0.7-1.2,1.7-3.5c1-2.3,2-4,3-4.9c1-1,2-1.5,3.1-1.5c0.8,0,1.5,0.1,1.9,0.4
		c0.4,0.3,0.6,0.6,0.6,1c0,0.6-0.1,1.2-0.4,1.5s-0.8,0.9-1.5,1.4c-3.1,2.4-5.4,5.2-6.7,8.6c-1.4,3.4-2.1,6.2-2.1,8.4
		c0,1,0.1,1.8,0.4,2.1c0.3,0.4,1,0.7,2,0.9c1.1,0.3,1.8,0.5,2.1,0.8c0.3,0.3,0.5,0.6,0.5,1c0,0.7-0.4,1.1-1.3,1.1
		c-0.7,0-1.6-0.1-2.8-0.3c-1.2-0.2-2.5-0.3-3.9-0.3c-0.9,0-1.9,0.1-2.8,0.3c-1,0.2-1.6,0.3-1.8,0.3c-0.7,0-1.2-0.1-1.7-0.4
		c-0.4-0.3-0.6-0.6-0.6-1c0-0.3,0.1-0.6,0.3-0.8c0.2-0.2,0.9-0.5,2-0.9s1.7-0.7,2-1.1s0.4-1.5,0.4-3.4V81.8c0-0.7-0.2-1.3-0.5-1.9
		c-0.3-0.6-1-1-2-1.3c-1-0.3-1.6-0.6-1.8-0.8c-0.2-0.2-0.3-0.5-0.3-0.7c0-0.8,0.6-1.2,1.7-1.2c0.3,0,0.9,0.1,1.6,0.2
		c0.7,0.1,1.3,0.2,1.6,0.2c0.2,0,0.6,0,1.2-0.1c0.6-0.1,1.2-0.1,2-0.1c1.3,0,2,1.4,2,4.2V81.9z"/>
	<path class="st11" d="M866.6,79c0,0.6,0.3,1.1,0.8,1.7c0.5,0.6,2.2,1.6,5,3.1c2.8,1.5,4.7,2.9,5.7,4.4c1,1.4,1.5,2.9,1.5,4.5
		c0,2.5-1,4.4-3.1,5.9c-2.1,1.5-4.7,2.2-8,2.2c-1.8,0-3.6-0.4-5.4-1.2c-1.8-0.8-2.7-1.6-2.7-2.4c0-0.7,0-1.5-0.1-2.4
		c-0.1-1-0.1-1.7-0.1-2.3c0-1.2,0.6-1.8,1.7-1.8c0.3,0,0.6,0.1,0.9,0.4c0.3,0.3,0.7,1.2,1.3,2.7c0.6,1.5,1.3,2.6,2.1,3.1
		c0.8,0.6,1.8,0.8,2.8,0.8c1.3,0,2.4-0.4,3.3-1.3c0.9-0.9,1.3-2,1.3-3.3c0-0.9-0.3-1.7-0.9-2.5c-0.6-0.8-2.3-1.8-5-3.1
		c-2.7-1.3-4.5-2.6-5.3-3.8c-0.8-1.2-1.2-2.6-1.2-4c0-1.9,0.9-3.5,2.7-4.8c1.8-1.3,3.8-1.9,6.2-1.9c2,0,3.9,0.3,5.7,1
		s2.8,1.4,2.8,2.2c0,0.5,0,1,0.1,1.7c0.1,0.7,0.1,1.2,0.1,1.6c0,0.5-0.1,1-0.4,1.4c-0.3,0.4-0.6,0.6-1,0.6c-0.6,0-1-0.1-1.2-0.4
		s-0.4-0.8-0.6-1.5c-0.2-0.7-0.5-1.3-0.9-1.7c-0.4-0.4-1-0.8-1.7-1.1c-0.7-0.3-1.5-0.5-2.4-0.5s-1.8,0.3-2.6,0.9
		S866.6,78.3,866.6,79z"/>
</g>
</svg>
